<svg width="512" height="512" viewBox="0 0 512 512" fill="none" xmlns="http://www.w3.org/2000/svg">
    <path
        d="M110.167 307.042H256V394.542H168.5V365.375H226.833V336.208H81V132.042C81 107.979 100.688 88.2915 124.75 88.2915H358.083C382.146 88.2915 401.833 107.979 401.833 132.042V175.792H372.667V132.042C372.667 124.021 366.104 117.458 358.083 117.458H124.75C116.729 117.458 110.167 124.021 110.167 132.042V307.042ZM431 248.708V423.708H285.167V248.708C285.167 224.646 304.854 204.958 328.917 204.958H387.25C411.312 204.958 431 224.646 431 248.708ZM401.833 248.708C401.833 240.687 395.271 234.125 387.25 234.125H328.917C320.896 234.125 314.333 240.687 314.333 248.708V394.542H401.833V248.708Z"
        fill="currentColor" />
</svg>