<svg width="512" height="512" viewBox="0 0 512 512" fill="none" xmlns="http://www.w3.org/2000/svg">
    <path
        d="M285.895 430.845C239.526 430.795 195.07 412.353 162.282 379.565C129.494 346.776 111.052 302.321 111.001 255.951C108.771 125.422 257.198 37.5523 370.296 103.05L392.931 115.613L370.442 128.439C272.793 182.19 279.934 330.587 382.102 374.835L405.727 385.489L384.346 400.151C355.392 420.11 321.062 430.813 285.895 430.845ZM285.895 110.206C247.254 110.249 210.208 125.617 182.885 152.941C155.562 180.264 140.193 217.31 140.15 255.951C137.891 359.678 253.292 433.76 346.452 388.317C324.642 373.68 306.562 354.139 293.659 331.26C280.757 308.381 273.39 282.799 272.149 256.562C270.908 230.325 275.827 204.162 286.513 180.167C297.199 156.172 313.354 135.013 333.685 118.382C318.342 112.938 302.176 110.172 285.895 110.206Z"
        fill="currentColor" />
</svg>