<svg width="512" height="512" viewBox="0 0 512 512" fill="none" xmlns="http://www.w3.org/2000/svg">
    <path
        d="M416.417 241.417H371.762C370.422 230.728 367.6 220.279 363.377 210.369L402.096 187.823C405.207 185.769 407.413 182.602 408.261 178.972C409.11 175.343 408.536 171.526 406.658 168.306C404.78 165.086 401.741 162.707 398.164 161.659C394.587 160.61 390.744 160.971 387.425 162.667L348.663 185.198C342.33 176.972 334.94 169.617 326.685 163.323L349.158 124.706C351.104 121.363 351.641 117.383 350.653 113.643C349.664 109.903 347.23 106.709 343.886 104.764C340.543 102.818 336.563 102.281 332.823 103.269C329.083 104.258 325.889 106.692 323.944 110.035L301.5 148.565C291.628 144.376 281.224 141.574 270.583 140.237V95.5833C270.583 91.7156 269.047 88.0063 266.312 85.2714C263.577 82.5365 259.868 81 256 81C252.132 81 248.423 82.5365 245.688 85.2714C242.953 88.0063 241.417 91.7156 241.417 95.5833V140.237C230.839 141.565 220.495 144.343 210.675 148.492L188.26 109.962C187.321 108.263 186.051 106.767 184.525 105.565C183 104.362 181.25 103.477 179.377 102.96C177.505 102.443 175.548 102.305 173.622 102.555C171.696 102.805 169.839 103.437 168.16 104.414C166.481 105.392 165.015 106.694 163.846 108.246C162.678 109.798 161.832 111.568 161.357 113.451C160.882 115.334 160.788 117.294 161.08 119.214C161.373 121.134 162.046 122.977 163.06 124.633L185.46 163.148C177.168 169.457 169.753 176.843 163.41 185.11L124.75 162.667C121.44 161.079 117.654 160.798 114.146 161.88C110.638 162.961 107.668 165.326 105.827 168.502C103.986 171.677 103.41 175.43 104.214 179.012C105.019 182.593 107.144 185.74 110.167 187.823L148.667 210.281C144.421 220.217 141.584 230.696 140.237 241.417H95.5833C91.7156 241.417 88.0063 242.953 85.2714 245.688C82.5365 248.423 81 252.132 81 256C81 259.868 82.5365 263.577 85.2714 266.312C88.0063 269.047 91.7156 270.583 95.5833 270.583H140.237C141.583 281.272 144.41 291.722 148.637 301.631L110.167 323.988C108.511 324.955 107.062 326.238 105.903 327.765C104.743 329.293 103.896 331.033 103.409 332.888C102.922 334.742 102.805 336.674 103.065 338.574C103.325 340.474 103.957 342.304 104.924 343.959C105.891 345.615 107.175 347.064 108.702 348.223C110.229 349.383 111.97 350.23 113.824 350.717C117.57 351.7 121.552 351.155 124.896 349.202L163.352 326.817C169.651 335.038 177.006 342.393 185.227 348.692L162.667 387.25C160.719 390.596 160.181 394.578 161.169 398.32C162.158 402.063 164.593 405.26 167.939 407.207C171.284 409.155 175.266 409.693 179.009 408.705C182.752 407.716 185.948 405.281 187.896 401.935L210.325 363.348C220.246 367.587 230.711 370.419 241.417 371.762V416.417C241.417 420.284 242.953 423.994 245.688 426.729C248.423 429.464 252.132 431 256 431C259.868 431 263.577 429.464 266.312 426.729C269.047 423.994 270.583 420.284 270.583 416.417V371.762C281.347 370.412 291.867 367.555 301.835 363.275L324.338 401.935C326.285 405.277 329.48 407.708 333.22 408.694C336.96 409.68 340.938 409.14 344.28 407.193C347.622 405.245 350.053 402.05 351.039 398.31C352.025 394.57 351.485 390.592 349.537 387.25L326.992 348.502C335.156 342.221 342.462 334.896 348.721 326.715L387.323 349.188C390.667 351.133 394.646 351.671 398.386 350.682C402.126 349.693 405.32 347.259 407.266 343.916C409.211 340.572 409.749 336.592 408.76 332.852C407.771 329.112 405.337 325.918 401.994 323.973L363.406 301.515C367.611 291.641 370.424 281.231 371.762 270.583H416.417C420.284 270.583 423.994 269.047 426.729 266.312C429.464 263.577 431 259.868 431 256C431 252.132 429.464 248.423 426.729 245.688C423.994 242.953 420.284 241.417 416.417 241.417ZM256 343.5C144.525 342.129 136.3 173.167 256 168.5C371.631 172.175 371.617 339.84 256 343.5Z"
        fill="currentColor" />
</svg>